<svg width="702" height="160" viewBox="0 0 702 160" fill="none" xmlns="http://www.w3.org/2000/svg">
<path d="M101.103 0.0566358C82.8346 -0.566552 73.6169 3.86567 58.4559 17.7037C28.8594 13.2686 6.78514 26.3209 1.29277 53.722C-0.254786 61.4426 0.578225 69.482 2.98862 76.9782C11.1596 102.389 26.4872 110.569 58.9587 113.109C64.9662 113.578 71.0186 113.252 76.9897 112.442L119.485 106.674L95.5882 159.248C108.391 160.767 114.889 159.356 126.103 155.571C139.384 128.481 147.03 113.614 156.618 80.5714C116.353 86.7278 94.7654 89.7322 68.0147 89.7625C54.0115 89.0657 44.6462 87.4909 38.2561 82.8774C27.2158 74.9068 25.7391 55.9563 35.9018 46.8933C41.8393 41.5983 51.6026 40.4363 68.0147 41.9684C72.9998 31.7319 78.5846 27.2411 88.4167 25.1234C96.7156 23.3358 105.447 23.996 113.506 26.6627C122.595 29.6701 127.847 33.8981 133.088 41.9684C142.703 40.2083 149.498 40.3628 155.629 42.9337C167.535 47.9273 174.737 61.4088 172.184 74.065C170.386 82.9783 165.81 93.6768 158.824 108.513C177.328 102.689 189.342 95.1809 195.613 76.9713C200.461 62.8931 198.468 46.9007 190.344 34.4225C179.38 17.5814 165.366 15.075 141.176 17.7037C133.182 4.50836 124.139 0.857792 101.103 0.0566358Z" fill="url(#paint0_linear_175_109)"/>
<path d="M78.3097 156.674L94.8539 127.263C66.6802 128.243 51.5284 128.07 30.5156 121.013C43.2265 142.194 55.0001 148.407 78.3097 156.674Z" fill="#8AC454"/>
<path d="M248.091 126V32.9091H284.818C291.879 32.9091 297.894 34.2576 302.864 36.9545C307.833 39.6212 311.621 43.3333 314.227 48.0909C316.864 52.8182 318.182 58.2727 318.182 64.4545C318.182 70.6364 316.848 76.0909 314.182 80.8182C311.515 85.5455 307.652 89.2273 302.591 91.8636C297.561 94.5 291.47 95.8182 284.318 95.8182H260.909V80.0455H281.136C284.924 80.0455 288.045 79.3939 290.5 78.0909C292.985 76.7576 294.833 74.9242 296.045 72.5909C297.288 70.2273 297.909 67.5151 297.909 64.4545C297.909 61.3636 297.288 58.6667 296.045 56.3636C294.833 54.0303 292.985 52.2273 290.5 50.9545C288.015 49.6515 284.864 49 281.045 49H267.773V126H248.091ZM388.466 32.9091H408.148V93.3636C408.148 100.152 406.527 106.091 403.284 111.182C400.072 116.273 395.572 120.242 389.784 123.091C383.996 125.909 377.254 127.318 369.557 127.318C361.83 127.318 355.072 125.909 349.284 123.091C343.496 120.242 338.996 116.273 335.784 111.182C332.572 106.091 330.966 100.152 330.966 93.3636V32.9091H350.648V91.6818C350.648 95.2273 351.42 98.3788 352.966 101.136C354.542 103.894 356.754 106.061 359.602 107.636C362.451 109.212 365.769 110 369.557 110C373.375 110 376.693 109.212 379.511 107.636C382.36 106.061 384.557 103.894 386.102 101.136C387.678 98.3788 388.466 95.2273 388.466 91.6818V32.9091ZM424.341 126V32.9091H461.068C468.129 32.9091 474.144 34.2576 479.114 36.9545C484.083 39.6212 487.871 43.3333 490.477 48.0909C493.114 52.8182 494.432 58.2727 494.432 64.4545C494.432 70.6364 493.098 76.0909 490.432 80.8182C487.765 85.5455 483.902 89.2273 478.841 91.8636C473.811 94.5 467.72 95.8182 460.568 95.8182H437.159V80.0455H457.386C461.174 80.0455 464.295 79.3939 466.75 78.0909C469.235 76.7576 471.083 74.9242 472.295 72.5909C473.538 70.2273 474.159 67.5151 474.159 64.4545C474.159 61.3636 473.538 58.6667 472.295 56.3636C471.083 54.0303 469.235 52.2273 466.75 50.9545C464.265 49.6515 461.114 49 457.295 49H444.023V126H424.341ZM512.511 126H491.42L523.557 32.9091H548.92L581.011 126H559.92L536.602 54.1818H535.875L512.511 126ZM511.193 89.4091H561.011V104.773H511.193V89.4091ZM592.216 32.9091H616.489L642.125 95.4545H643.216L668.852 32.9091H693.125V126H674.034V65.4091H673.261L649.17 125.545H636.17L612.08 65.1818H611.307V126H592.216V32.9091Z" fill="url(#paint1_linear_175_109)"/>
<defs>
<linearGradient id="paint0_linear_175_109" x1="100" y1="0" x2="100" y2="159.849" gradientUnits="userSpaceOnUse">
<stop stop-color="#27B7EE"/>
<stop offset="1" stop-color="#007AC3"/>
</linearGradient>
<linearGradient id="paint1_linear_175_109" x1="240" y1="79.5" x2="702" y2="79.5" gradientUnits="userSpaceOnUse">
<stop stop-color="#169CDB"/>
<stop offset="1" stop-color="#C051C4"/>
</linearGradient>
</defs>
</svg>
